<?xml version="1.0" encoding="utf-8"?>
<!-- Generator: Adobe Illustrator 24.1.1, SVG Export Plug-In . SVG Version: 6.00 Build 0)  -->
<svg version="1.1" id="Group_1" xmlns="http://www.w3.org/2000/svg" xmlns:xlink="http://www.w3.org/1999/xlink" x="0px" y="0px"
	 viewBox="0 0 493.4 476" style="enable-background:new 0 0 493.4 476;" xml:space="preserve">
<style type="text/css">
	.st0{fill:#4DBA87;}
	.st1{fill:#FDFFFF;}
	.st2{fill:#435466;}
	.st3{fill:#FEFEFE;}
	.st4{fill-rule:evenodd;clip-rule:evenodd;fill:#FEFEFE;}
	.st5{fill:#23263E;}
	.st6{fill:#FAB9B2;}
	.st7{fill:#EAA59A;}
	.st8{opacity:0.251;}
	.st9{fill:#D7DBE4;}
	.st10{fill:#CDAD93;}
	.st11{fill:#38373C;}
</style>
<g id="Shape_857">
	<g>
		<polygon class="st0" points="251.9,382.6 237.9,277.4 249.1,291.4 295.5,281.6 299.7,263.4 254.7,263.4 223.8,197.4 167.6,200.2 
			156.4,391 		"/>
	</g>
</g>
<g id="Shape_863_copy">
	<g>
		<polygon class="st0" points="254.7,430.3 281.4,457 270.2,426.1 257.5,421.9 		"/>
	</g>
</g>
<g id="Shape_862">
	<g>
		<polygon points="280,337.7 256.1,424.7 267.4,428.9 313.8,322.3 229.4,306.9 207,311.1 		"/>
	</g>
</g>
<g id="Shape_863">
	<g>
		<polygon class="st0" points="266,442.9 292.7,469.6 281.4,438.7 268.8,434.5 		"/>
	</g>
</g>
<g id="Shape_860">
	<g>
		<path class="st1" d="M208.4,232.4c9.2,28.1-5.6,77.2-5.6,77.2l28.1-1.4v-68.7l-21.1-39.3l-15.5,1.4
			C194.3,201.6,199.2,204.3,208.4,232.4z"/>
	</g>
</g>
<g id="Shape_859">
	<g>
		<path class="st2" d="M167.6,392.4c-7.7-20.4,7.8-44.9,21.1-75.8s2.8-96.8,2.8-96.8S167.6,294.2,162,311c-5.6,16.9-5.6,80-5.6,80
			L167.6,392.4z"/>
	</g>
</g>
<g id="_x2A__copy_24">
	<g>
		<path class="st3" d="M174,51c0,0.7,0.9,1.6,2.7,2.7c1.8,1.2,2.7,1.9,2.7,2.2c0-0.1-0.3,0.7-0.9,2.2s-0.9,2.6-0.9,3.4
			c0,1.1,0.7,1.6,1.9,1.6c0.6,0,1.4-0.7,2.6-2s1.9-2,2.2-2c0.4,0,1.1,0.7,2.3,2.1c1.2,1.4,2.1,2.1,2.8,2.1c1.1,0,1.7-0.5,1.7-1.7
			c0-0.8-0.3-2-1-3.5s-1-2.3-1-2.4c0-0.3,0.9-1,2.6-2c1.7-1.1,2.6-1.9,2.6-2.6c0-0.9-0.4-1.4-1.4-1.5c-0.3-0.1-2-0.1-5-0.1
			c-0.6,0-0.9-0.3-1-0.9c-0.6-3.4-0.9-5.1-0.9-5.1c-0.3-0.7-0.8-1-1.6-1c-0.8,0-1.4,0.4-1.7,1c-0.4,1.8-0.7,3.5-0.9,5.1
			c-0.1,0.6-0.5,0.9-1,0.9c-0.6,0-1.4,0-2.6-0.1s-2-0.1-2.6-0.1c-0.3,0-0.6,0.2-0.9,0.6C174.4,50.3,174.3,50.7,174,51z"/>
	</g>
</g>
<g id="_x2A__copy_25">
	<g>
		<path class="st3" d="M47,167c0,0.7,0.9,1.6,2.7,2.7c1.8,1.2,2.7,1.9,2.7,2.2c0-0.1-0.3,0.7-0.9,2.2s-0.9,2.6-0.9,3.4
			c0,1.1,0.7,1.6,1.9,1.6c0.6,0,1.4-0.7,2.6-2s1.9-2,2.2-2c0.4,0,1.1,0.7,2.3,2.1c1.2,1.4,2.1,2.1,2.8,2.1c1.1,0,1.7-0.5,1.7-1.7
			c0-0.8-0.3-2-1-3.5s-1-2.3-1-2.4c0-0.3,0.9-1,2.6-2c1.7-1.1,2.6-1.9,2.6-2.6c0-0.9-0.4-1.4-1.4-1.5c-0.3-0.1-2-0.1-5-0.1
			c-0.6,0-0.9-0.3-1-0.9c-0.6-3.4-0.9-5.1-0.9-5.1c-0.3-0.7-0.8-1-1.6-1c-0.8,0-1.4,0.4-1.7,1c-0.4,1.8-0.7,3.5-0.9,5.1
			c-0.1,0.6-0.5,0.9-1,0.9c-0.6,0-1.4,0-2.6-0.1s-2-0.1-2.6-0.1c-0.3,0-0.6,0.2-0.9,0.6C47.4,166.3,47.3,166.7,47,167z"/>
	</g>
</g>
<g id="_x2A__copy_26">
	<g>
		<path class="st3" d="M384,327c0,0.7,0.9,1.6,2.7,2.7c1.8,1.2,2.7,1.9,2.7,2.2c0-0.1-0.3,0.7-0.9,2.2s-0.9,2.6-0.9,3.4
			c0,1.1,0.7,1.6,1.9,1.6c0.6,0,1.4-0.7,2.6-2c1.2-1.3,1.9-2,2.2-2c0.4,0,1.1,0.7,2.3,2.1c1.2,1.4,2.1,2.1,2.8,2.1
			c1.1,0,1.7-0.5,1.7-1.7c0-0.8-0.3-2-1-3.5c-0.7-1.5-1-2.3-1-2.4c0-0.3,0.9-1,2.6-2c1.7-1.1,2.6-1.9,2.6-2.6c0-0.9-0.4-1.4-1.4-1.5
			c-0.3-0.1-2-0.1-5-0.1c-0.6,0-0.9-0.3-1-0.9c-0.6-3.4-0.9-5.1-0.9-5.1c-0.3-0.7-0.8-1-1.6-1s-1.4,0.4-1.7,1
			c-0.4,1.8-0.7,3.5-0.9,5.1c-0.1,0.6-0.5,0.9-1,0.9c-0.6,0-1.4,0-2.6-0.1c-1.2-0.1-2-0.1-2.6-0.1c-0.3,0-0.6,0.2-0.9,0.6
			C384.4,326.3,384.3,326.7,384,327z"/>
	</g>
</g>
<g id="_x2A__copy_27">
	<g>
		<path class="st3" d="M279,141c0,0.7,0.9,1.6,2.7,2.7c1.8,1.2,2.7,1.9,2.7,2.2c0-0.1-0.3,0.7-0.9,2.2c-0.6,1.5-0.9,2.6-0.9,3.4
			c0,1.1,0.7,1.6,1.9,1.6c0.6,0,1.4-0.7,2.6-2c1.2-1.3,1.9-2,2.2-2c0.4,0,1.1,0.7,2.3,2.1c1.2,1.4,2.1,2.1,2.8,2.1
			c1.1,0,1.7-0.5,1.7-1.7c0-0.8-0.3-2-1-3.5c-0.7-1.5-1-2.3-1-2.4c0-0.3,0.9-1,2.6-2c1.7-1.1,2.6-1.9,2.6-2.6c0-0.9-0.4-1.4-1.4-1.5
			c-0.3-0.1-2-0.1-5-0.1c-0.6,0-0.9-0.3-1-0.9c-0.6-3.4-0.9-5.1-0.9-5.1c-0.3-0.7-0.8-1-1.6-1c-0.8,0-1.4,0.4-1.7,1
			c-0.4,1.8-0.7,3.5-0.9,5.1c-0.1,0.6-0.5,0.9-1,0.9c-0.6,0-1.4,0-2.6-0.1c-1.2-0.1-2-0.1-2.6-0.1c-0.3,0-0.6,0.2-0.9,0.6
			C279.4,140.3,279.3,140.7,279,141z"/>
	</g>
</g>
<g id="_x2A__copy_28">
	<g>
		<path class="st3" d="M41,266c0,0.7,0.9,1.6,2.7,2.7c1.8,1.2,2.7,1.9,2.7,2.2c0-0.1-0.3,0.7-0.9,2.2s-0.9,2.6-0.9,3.4
			c0,1.1,0.7,1.6,1.9,1.6c0.6,0,1.4-0.7,2.6-2s1.9-2,2.2-2c0.4,0,1.1,0.7,2.3,2.1c1.2,1.4,2.1,2.1,2.8,2.1c1.1,0,1.7-0.5,1.7-1.7
			c0-0.8-0.3-2-1-3.5s-1-2.3-1-2.4c0-0.3,0.9-1,2.6-2c1.7-1.1,2.6-1.9,2.6-2.6c0-0.9-0.4-1.4-1.4-1.5c-0.3-0.1-2-0.1-5-0.1
			c-0.6,0-0.9-0.3-1-0.9c-0.6-3.4-0.9-5.1-0.9-5.1c-0.3-0.7-0.8-1-1.6-1c-0.8,0-1.4,0.4-1.7,1c-0.4,1.8-0.7,3.5-0.9,5.1
			c-0.1,0.6-0.5,0.9-1,0.9c-0.6,0-1.4,0-2.6-0.1s-2-0.1-2.6-0.1c-0.3,0-0.6,0.2-0.9,0.6C41.4,265.3,41.3,265.7,41,266z"/>
	</g>
</g>
<g id="Ellipse_867_copy_5">
	<g>
		<path class="st4" d="M306.5,98.7c5.9,5.3,13.3,9.1,21.6,10.7c2.8,0.5,5.6,0.8,8.3,0.8c-1.8-0.5-3.1-1.8-3.1-3.3
			c0-2,2.3-3.6,5.2-3.6s5.2,1.6,5.2,3.6c0,1.3-1,2.5-2.5,3.1c18.3-2,34-15.1,38.7-33.7c-1.9-0.8-3.3-2.7-3.3-4.9c0-2.7,2-5,4.7-5.2
			c0.6-21.8-14.6-41.4-36.6-45.6c-2.5-0.5-4.9-0.7-7.4-0.8c7.2,6.8,12.1,15.9,13.8,25.9c0.5-0.3,1.1-0.5,1.8-0.5
			c2,0,3.6,1.6,3.6,3.6s-1.6,3.6-3.6,3.6c-0.4,0-0.8-0.1-1.2-0.2c0,3.1-0.2,6.2-0.8,9.4C346.8,83.5,327.8,98.8,306.5,98.7z
			 M354.1,89.2c0-2.9,1.3-5.3,2.8-5.3s2.8,2.4,2.8,5.3c0,2.8-1.2,5.2-2.8,5.2C355.4,94.4,354.1,92.1,354.1,89.2z"/>
	</g>
</g>
<g id="Shape_804_copy_7">
	<g>
		<path class="st5" d="M173.8,138.7c0,0,8.3,7,6.4,15.5c-1.9,8.4,10.1,22.2,14.8,15.9c4.8-6.4,29.7-27.2,29.7-27.2
			s34.9-38.1-8.3-35.9l-17.8,4.7l-9.9-4.3C188.7,107.4,166.5,120.5,173.8,138.7z"/>
	</g>
</g>
<g id="Shape_799_copy_6">
	<g>
		<path class="st6" d="M187.3,142.5l2.9,24.5l33,6.1c0,0-0.5-41.1-7.1-41.4s-14.1,3.9-22.9-5.7l-1.6,7.9
			C191.6,133.9,178.7,125.7,187.3,142.5z"/>
	</g>
</g>
<g id="Shape_800_copy_6">
	<g>
		<path class="st7" d="M186,183.7c0,0,9.4,21.7,22.9,23.4s10.3-13.9,5.4-20.2c-4.9-6.3-0.4-15.4-0.4-15.4l-20.3-6.4L186,183.7z"/>
	</g>
</g>
<g id="Ellipse_843_copy_4">
	<g>
		<path class="st3" d="M169.2,193.1c24,20.3,60.1,17.6,80.8-6.1c-68.8-20.1-106.8-19.9-6-79.8c-24-20.3-60.1-17.6-80.8,6.1
			C142.6,137,145.3,172.7,169.2,193.1z"/>
	</g>
</g>
<g id="Ellipse_844_copy_6" class="st8">
	<g>
		
			<ellipse transform="matrix(0.9976 -6.871528e-02 6.871528e-02 0.9976 -9.8123 14.6992)" class="st3" cx="208.8" cy="150" rx="55.8" ry="55.1"/>
	</g>
</g>
<g id="Ellipse_845_copy_4">
	<g>
		<path class="st0" d="M179.7,166.1c4.5,0.9,8.9-2,9.8-6.4c0.9-4.5-2-8.8-6.5-9.7c-4.5-0.9-8.9,2-9.8,6.4
			C172.2,160.9,175.2,165.2,179.7,166.1z"/>
	</g>
</g>
<g id="Shape_879">
	<g>
		<polygon class="st3" points="132.5,194.6 139.5,292.8 157.8,291.4 171.8,200.2 		"/>
	</g>
</g>
<g id="Shape_878">
	<g>
		<polygon class="st9" points="150.8,198.8 150.8,290 178.9,284.4 178.9,201.6 		"/>
	</g>
</g>
<g id="Shape_866">
	<g>
		<polygon class="st9" points="299.7,263.4 403.6,262 418.1,165.9 309.5,155.9 		"/>
	</g>
</g>
<g id="Shape_864">
	<g>
		<polygon class="st10" points="219.6,280.2 219.6,295.6 244.9,288.6 256.1,280.2 267.4,274.6 270.2,262 282.8,256.3 256.1,259.2 
			239.3,277.4 		"/>
	</g>
</g>
<g id="Shape_865">
	<g>
		<polygon class="st10" points="296.9,276 313.8,270.4 339,271.8 357.3,262 365.7,256.3 354.5,256.3 355.9,252.1 343.3,259.2 
			319.4,262 299.7,263.4 		"/>
	</g>
</g>
<g id="Rectangle_867_copy">
	<g>
		<rect x="110" y="346.1" class="st2" width="253.9" height="9.8"/>
	</g>
</g>
<g id="Shape_858">
	<g>
		<polygon class="st0" points="150.8,309.7 219.6,297 219.6,280.2 183.1,280.2 194.3,208.6 169,200.2 		"/>
	</g>
</g>
<g id="Shape_861">
	<g>
		<polygon class="st11" points="202.7,350.3 267.4,350.3 268.8,434.5 280,441.5 305.3,323.7 204.1,311.1 		"/>
	</g>
</g>
<g id="Shape_869">
	<g>
		<path class="st0" d="M164.7,391.1c0,0,30.3-1.4,40.8-4.2s1.6-33.2-1.4-39.3s-1.4-40.7-1.4-40.7l-25.3,30.9l-7,18.2L164.7,391.1z"
			/>
	</g>
</g>
<g id="Shape_859_copy">
	<g>
		<path class="st2" d="M167.6,392.4c-7.7-20.4,7.8-44.9,21.1-75.8c-6.7-9.6-14.2,11.8-26.7-5.6c-5.6,16.9-5.6,80-5.6,80L167.6,392.4
			z"/>
	</g>
</g>
<path class="st0" d="M369.6,194.5l-5.7,9.8l-5.7-9.8h-18.9l24.6,42.6l24.6-42.6H369.6z"/>
<path class="st2" d="M369.6,194.5l-5.7,9.8l-5.7-9.8h-9.1l14.8,25.6l14.8-25.6H369.6z"/>
</svg>
